# xmcd
#
# Track frame offsets:
#	150
#	14616
#	31735
#	46306
#	60283
#	77207
#	87759
#	104164
#	120643
#	137708
#	151602
#	167201
#
# Disc length: 2431 seconds
#
# Revision: 1
# Processed by: cddbd v1.5.1PL0 Copyright (c) Steve Scherf et al.
# Submitted via: audiograbber 1.81.02
#
DISCID=90097d0c
DTITLE=Various Artist - A song writer's tribute to George Straight Vol 1
DYEAR=1900
DGENRE=Folk
TTITLE0=DOES FT WORTH EVER CROSS YOUR MIND
TTITLE1=CARRYING YOUR LOVE WITH ME
TTITLE2=CARRIED AWAY
TTITLE3=FOOL HEARTED MEMORY
TTITLE4=CHILL OF AN EARLY FALL
TTITLE5=BLAME IT ON MEXICO
TTITLE6=THE FIREMAN
TTITLE7=RUN
TTITLE8=I CROSS MY HEART
TTITLE9=CHECK YES OR NO
TTITLE10=THE COWBOY RIDES AWAY
TTITLE11=ALL MY EX'S LIVE IN TEXAS
EXTD=
EXTT0=
EXTT1=
EXTT2=
EXTT3=
EXTT4=
EXTT5=
EXTT6=
EXTT7=
EXTT8=
EXTT9=
EXTT10=
EXTT11=
PLAYORDER=
